<svg width="30" height="30" viewBox="0 0 30 30" fill="none" xmlns="http://www.w3.org/2000/svg">
<g clip-path="url(#clip0_57500_84)">
<path d="M28.8916 0.0731982L25.717 1.51816C25.5137 1.61199 25.3261 1.74023 25.1666 1.89974L19.9935 7.07597L2.17847 4.93979C1.85632 4.90226 1.53105 5.01173 1.30273 5.24317L0.31127 6.23463C-0.214173 6.76008 -0.0515358 7.64832 0.62716 7.9517L13.3942 13.6753L9.72857 17.3409H3.32631C3.04482 17.3409 2.77584 17.4535 2.57568 17.6505L2.04085 18.1884C1.50915 18.7201 1.6843 19.6177 2.37238 19.9118L7.7738 22.2262L10.0882 27.6276C10.3822 28.3157 11.283 28.4909 11.8116 27.9592L12.3495 27.4212C12.5497 27.221 12.6592 26.9521 12.6592 26.6706V20.2683L16.3247 16.6027L22.0483 29.3729C22.3517 30.0516 23.2399 30.2142 23.7654 29.6888L24.7568 28.6973C24.9883 28.4659 25.0977 28.1437 25.0602 27.8216L22.9209 10.0066L28.0971 4.83036C28.2567 4.67085 28.3849 4.48632 28.4787 4.27989L29.9237 1.10535C30.2271 0.451642 29.5515 -0.227054 28.8916 0.0731982Z" fill="white"/>
</g>
<defs>
<clipPath id="clip0_57500_84">
<rect width="30" height="30" fill="white"/>
</clipPath>
</defs>
</svg>
