<svg width="40" height="40" viewBox="0 0 40 40" fill="none" xmlns="http://www.w3.org/2000/svg">
<mask id="mask0_57544_13" style="mask-type:alpha" maskUnits="userSpaceOnUse" x="0" y="0" width="40" height="40">
<rect width="40" height="40" fill="#D9D9D9"/>
</mask>
<g mask="url(#mask0_57544_13)">
<path d="M6.58334 31.6667L3.41668 20.5C3.33334 20.1667 3.36779 19.7778 3.52001 19.3334C3.67334 18.8889 4.00001 18.5834 4.50001 18.4167L6.66668 17.6667V10C6.66668 9.08335 6.99334 8.29891 7.64668 7.64669C8.2989 6.99335 9.08334 6.66669 10 6.66669H15V1.66669H25V6.66669H30C30.9167 6.66669 31.7017 6.99335 32.355 7.64669C33.0072 8.29891 33.3333 9.08335 33.3333 10V17.6667L35.5 18.4167C36.0833 18.6389 36.4306 18.965 36.5417 19.395C36.6528 19.8261 36.6667 20.1945 36.5833 20.5L33.4167 31.6667C32.0278 31.6667 30.7639 31.3406 29.625 30.6884C28.4861 30.035 27.5 29.25 26.6667 28.3334C25.8333 29.25 24.8472 30.035 23.7083 30.6884C22.5695 31.3406 21.3333 31.6667 20 31.6667C18.6667 31.6667 17.4306 31.3406 16.2917 30.6884C15.1528 30.035 14.1667 29.25 13.3333 28.3334C12.5 29.25 11.5139 30.035 10.375 30.6884C9.23612 31.3406 7.97223 31.6667 6.58334 31.6667ZM3.33334 38.3334V35H6.66668C7.83334 35 8.98612 34.8195 10.125 34.4584C11.2639 34.0972 12.3333 33.5556 13.3333 32.8334C14.3333 33.5556 15.4028 34.0834 16.5417 34.4167C17.6806 34.75 18.8333 34.9167 20 34.9167C21.1667 34.9167 22.3195 34.75 23.4583 34.4167C24.5972 34.0834 25.6667 33.5556 26.6667 32.8334C27.6667 33.5556 28.7361 34.0972 29.875 34.4584C31.0139 34.8195 32.1667 35 33.3333 35H36.6667V38.3334H33.3333C32.1667 38.3334 31.0278 38.1945 29.9167 37.9167C28.8056 37.6389 27.7222 37.2222 26.6667 36.6667C25.6111 37.2222 24.5211 37.6389 23.3967 37.9167C22.2711 38.1945 21.1389 38.3334 20 38.3334C18.8611 38.3334 17.7295 38.1945 16.605 37.9167C15.4795 37.6389 14.3889 37.2222 13.3333 36.6667C12.2778 37.2222 11.1945 37.6389 10.0833 37.9167C8.97223 38.1945 7.83334 38.3334 6.66668 38.3334H3.33334ZM10 16.5834L20 13.3334L30 16.5834V10H10V16.5834Z" fill="white"/>
</g>
</svg>
