<svg width="40" height="40" viewBox="0 0 40 40" fill="none" xmlns="http://www.w3.org/2000/svg">
<mask id="mask0_57544_19" style="mask-type:alpha" maskUnits="userSpaceOnUse" x="0" y="0" width="40" height="40">
<rect width="40" height="40" fill="#D9D9D9"/>
</mask>
<g mask="url(#mask0_57544_19)">
<path d="M10 31.6666C8.61113 31.6666 7.43058 31.1805 6.45835 30.2083C5.48613 29.2361 5.00002 28.0555 5.00002 26.6666H1.66669V11.6666C1.66669 10.75 1.99335 9.96554 2.64669 9.31331C3.29891 8.65998 4.08335 8.33331 5.00002 8.33331H28.3334L38.3334 18.3333V26.6666H35C35 28.0555 34.5139 29.2361 33.5417 30.2083C32.5695 31.1805 31.3889 31.6666 30 31.6666C28.6111 31.6666 27.4306 31.1805 26.4584 30.2083C25.4861 29.2361 25 28.0555 25 26.6666H15C15 28.0555 14.5139 29.2361 13.5417 30.2083C12.5695 31.1805 11.3889 31.6666 10 31.6666ZM25 16.6666H31.6667L26.6667 11.6666H25V16.6666ZM15 16.6666H21.6667V11.6666H15V16.6666ZM5.00002 16.6666H11.6667V11.6666H5.00002V16.6666ZM10 28.75C10.5834 28.75 11.0767 28.5483 11.48 28.145C11.8822 27.7428 12.0834 27.25 12.0834 26.6666C12.0834 26.0833 11.8822 25.5905 11.48 25.1883C11.0767 24.785 10.5834 24.5833 10 24.5833C9.41669 24.5833 8.92391 24.785 8.52169 25.1883C8.11835 25.5905 7.91669 26.0833 7.91669 26.6666C7.91669 27.25 8.11835 27.7428 8.52169 28.145C8.92391 28.5483 9.41669 28.75 10 28.75ZM30 28.75C30.5834 28.75 31.0767 28.5483 31.48 28.145C31.8822 27.7428 32.0834 27.25 32.0834 26.6666C32.0834 26.0833 31.8822 25.5905 31.48 25.1883C31.0767 24.785 30.5834 24.5833 30 24.5833C29.4167 24.5833 28.9239 24.785 28.5217 25.1883C28.1184 25.5905 27.9167 26.0833 27.9167 26.6666C27.9167 27.25 28.1184 27.7428 28.5217 28.145C28.9239 28.5483 29.4167 28.75 30 28.75Z" fill="white"/>
</g>
</svg>
