<svg width="187" height="46" viewBox="0 0 187 46" fill="none" xmlns="http://www.w3.org/2000/svg">
<g clip-path="url(#clip0_8_172)">
<path d="M36.7229 33.864C36.1088 34.9447 35.3842 35.9616 34.5589 36.8974L34.5811 36.9195L33.8147 37.6883C30.403 41.1197 25.8615 43.011 21.0252 43.011C16.2086 43.011 11.6793 41.1344 8.27253 37.7276C4.86576 34.3209 2.98921 29.7916 2.98921 24.975C2.98921 24.6188 2.99904 24.2578 3.02114 23.8991C3.0236 23.85 3.02606 23.8009 3.03097 23.7493V23.7346C3.03343 23.7027 3.03588 23.6683 3.03834 23.6363V23.6191C3.04325 23.5455 3.05062 23.4693 3.05799 23.3956C3.0629 23.3342 3.06781 23.2704 3.07518 23.204C3.08501 23.1082 3.09483 23.01 3.10466 22.9142C3.11202 22.8577 3.11694 22.7939 3.12676 22.7324C3.13659 22.6538 3.14641 22.563 3.15869 22.4745C3.16606 22.4254 3.17343 22.3763 3.1808 22.3272C3.19062 22.2461 3.20536 22.1552 3.2201 22.0668C3.22747 22.0201 3.23729 21.9661 3.24466 21.9145C3.25203 21.8703 3.2594 21.8261 3.26922 21.7819C3.27905 21.7254 3.29133 21.6591 3.30361 21.5952C3.31343 21.5387 3.32572 21.4773 3.338 21.4159C3.35273 21.3447 3.36501 21.2759 3.38221 21.2022C3.48537 20.711 3.61309 20.2173 3.75801 19.7359L3.76292 19.7236C3.78012 19.6597 3.79976 19.5959 3.82187 19.5345C3.83906 19.4804 3.85626 19.4264 3.87345 19.3699C3.97661 19.0555 4.0896 18.7362 4.20995 18.4292C4.22715 18.3874 4.24434 18.3407 4.26153 18.2965C4.28118 18.2499 4.29838 18.2007 4.32048 18.1491C4.34504 18.0902 4.37206 18.0239 4.39908 17.9576C4.41873 17.9084 4.44329 17.8519 4.46786 17.7979L4.47768 17.7733C4.51207 17.6997 4.544 17.6235 4.57838 17.5498C4.60295 17.4933 4.62751 17.4393 4.65453 17.3853C5.10893 16.4028 5.66158 15.4547 6.29282 14.5655L6.39598 14.4255C6.46721 14.3273 6.53844 14.229 6.61213 14.1357C6.64652 14.0915 6.68336 14.0424 6.7202 13.9957C6.7988 13.8925 6.87986 13.7918 6.95846 13.6936C7.00513 13.6371 7.05179 13.5757 7.10092 13.5192C7.14513 13.4651 7.19425 13.4087 7.24338 13.3497C7.29005 13.2932 7.34163 13.2343 7.39075 13.1778C7.44724 13.1139 7.50374 13.0476 7.56023 12.9837L5.44297 10.864C1.93059 14.7276 0 19.7211 0 24.9725C0 30.5899 2.18603 35.8683 6.15773 39.84C10.1294 43.8117 15.4078 45.9977 21.0252 45.9977C26.6598 45.9977 31.9529 43.797 35.9271 39.8031C37.0618 38.6635 38.0615 37.401 38.904 36.0427L36.7229 33.864Z" fill="#C8A35F"/>
<path d="M9.81255 36.1875C12.8067 39.1816 16.7906 40.8322 21.0252 40.8322C21.1578 40.8322 21.2904 40.8297 21.4231 40.8273C21.4894 40.8273 21.5532 40.8248 21.6196 40.8224H21.6294C21.7276 40.8174 21.8234 40.8125 21.9217 40.8076C22.0003 40.8027 22.0764 40.7978 22.155 40.7929C22.1943 40.7904 22.2287 40.788 22.2606 40.7855L22.3147 40.7806C22.3859 40.7757 22.4571 40.7683 22.5308 40.7609C22.5947 40.756 22.6536 40.7511 22.715 40.7438C22.7592 40.7388 22.7985 40.7339 22.8354 40.7315L22.9164 40.7216C22.968 40.7143 23.0196 40.7094 23.0736 40.702C23.2701 40.6774 23.4617 40.6504 23.6509 40.6185C23.7049 40.6087 23.7565 40.5988 23.8081 40.5915L23.8252 40.589C23.867 40.5816 23.9088 40.5743 23.9481 40.5669L23.9677 40.562C24.0217 40.5522 24.0758 40.5423 24.1298 40.5301C24.2723 40.503 24.4123 40.4736 24.5498 40.4416C24.6432 40.422 24.7365 40.3974 24.8298 40.3753L24.8421 40.3729C24.8667 40.368 24.8888 40.363 24.9133 40.3557C24.9821 40.3385 25.0435 40.3213 25.1074 40.3066C25.1614 40.2918 25.213 40.2795 25.2621 40.2648C25.3063 40.2525 25.3456 40.2427 25.3825 40.2304C25.4193 40.2206 25.4488 40.2132 25.4758 40.2034L25.4979 40.196C25.5372 40.1862 25.5765 40.1739 25.6158 40.1616C25.6821 40.142 25.7386 40.1248 25.7951 40.1051C25.8418 40.0904 25.8811 40.0781 25.9253 40.0658C26.0579 40.0216 26.1906 39.9774 26.3208 39.9307C26.3576 39.9185 26.392 39.9062 26.4264 39.8939L26.4534 39.8841C26.5001 39.8669 26.5418 39.8521 26.5811 39.8374C26.6474 39.8129 26.7039 39.7907 26.7629 39.7686C26.812 39.749 26.8562 39.7342 26.898 39.7171C26.979 39.6851 27.0527 39.6557 27.1264 39.6237L27.3475 39.5304C27.4162 39.5009 27.485 39.4714 27.5489 39.442C27.5882 39.4248 27.6201 39.41 27.6545 39.3953L27.6864 39.3806C27.7404 39.356 27.7945 39.329 27.8485 39.3044C28.1826 39.1448 28.5117 38.9753 28.8286 38.7935C28.8629 38.7739 28.8949 38.7542 28.9293 38.737C29.0029 38.6953 29.0766 38.6511 29.1479 38.6093L29.5114 38.3858C29.671 38.2826 29.8381 38.1746 30.0174 38.0517C30.0665 38.0174 30.1156 37.983 30.1647 37.9486L30.1844 37.9338C30.2212 37.9068 30.2581 37.8823 30.2949 37.8552L30.3047 37.8479C30.3318 37.8282 30.3588 37.8086 30.3858 37.7889L30.3956 37.7816C30.4423 37.7496 30.4865 37.7152 30.5307 37.6809C30.5823 37.644 30.6314 37.6047 30.6781 37.5679C30.7125 37.5408 30.7395 37.5187 30.769 37.4966L30.8033 37.4696C30.8525 37.4303 30.904 37.391 30.9532 37.3493C31.0048 37.3075 31.0563 37.2658 31.1055 37.2265L31.1177 37.2166C31.2135 37.138 31.3069 37.057 31.4027 36.9759C31.4321 36.9514 31.4592 36.9268 31.4886 36.8998L29.3689 34.7776C27.0478 36.7573 24.1028 37.8405 21.0325 37.8405C13.939 37.8405 8.16688 32.0684 8.16688 24.9749C8.16688 21.5165 9.52026 18.2718 11.974 15.8377C13.126 14.6956 14.5064 13.7696 15.9973 13.1334L13.7474 10.8835C12.313 11.6278 11.0038 12.5832 9.85185 13.7278C6.8307 16.7269 5.16785 20.7182 5.16785 24.9724C5.16785 29.2094 6.81842 33.1909 9.81255 36.1875Z" fill="white"/>
<path d="M39.0195 21.0252C39.0195 15.4078 36.8334 10.1294 32.8617 6.15773C28.89 2.18603 23.6092 0 17.9918 0C12.3572 0 7.0641 2.19831 3.0924 6.19457C1.95762 7.3318 0.957945 8.59675 0.113007 9.95504L2.29658 12.1386C2.91064 11.0579 3.63522 10.041 4.46051 9.10519L4.4384 9.08308L5.20474 8.31429C8.61397 4.88296 13.158 2.99167 17.9943 2.99167C22.8109 2.99167 27.3402 4.86822 30.7469 8.27499C34.1537 11.6818 36.0302 16.2086 36.0302 21.0277C36.0302 21.3838 36.0204 21.7473 35.9983 22.1035C35.9959 22.1501 35.9934 22.2017 35.9885 22.2533C35.986 22.2902 35.9836 22.327 35.9811 22.3638V22.381C35.9762 22.4547 35.9688 22.5309 35.9615 22.6045C35.9566 22.666 35.9516 22.7323 35.9443 22.7986C35.9344 22.8919 35.9246 22.9902 35.9148 23.0884C35.9074 23.1449 35.9025 23.2063 35.8927 23.2702C35.8829 23.3488 35.873 23.4372 35.8608 23.5281C35.8534 23.5772 35.846 23.6263 35.8387 23.673C35.8288 23.7565 35.8141 23.8449 35.7994 23.9358C35.792 23.9825 35.7822 24.0365 35.7748 24.0881C35.7674 24.1323 35.7601 24.1765 35.7502 24.2207C35.7404 24.2772 35.7281 24.3435 35.7158 24.4074C35.706 24.4639 35.6937 24.5253 35.679 24.5867C35.6667 24.6555 35.652 24.7267 35.6348 24.8004C35.5316 25.2916 35.4039 25.7878 35.259 26.2668C35.2393 26.3331 35.2197 26.4019 35.1951 26.4706C35.1779 26.5247 35.1607 26.5787 35.1435 26.6352C35.0404 26.952 34.9274 27.2689 34.807 27.5759C34.7899 27.6177 34.7727 27.6619 34.7555 27.7061C34.7358 27.7552 34.7162 27.8044 34.6965 27.8535C34.672 27.9124 34.6449 27.9787 34.6179 28.0451C34.5983 28.0942 34.5737 28.1507 34.5491 28.2047L34.5393 28.2293C34.5049 28.303 34.473 28.3791 34.4386 28.4528C34.4141 28.5093 34.3895 28.5633 34.3625 28.6174C33.9081 29.5998 33.3554 30.5479 32.7242 31.4371L32.6235 31.5771C32.5498 31.6778 32.4786 31.7736 32.4073 31.8669C32.3729 31.9136 32.3361 31.9603 32.2993 32.0069C32.2207 32.1101 32.1396 32.2108 32.061 32.3091C32.0143 32.3655 31.9677 32.427 31.9185 32.4834C31.8768 32.535 31.8326 32.5891 31.7859 32.6431L31.7761 32.6529C31.727 32.7094 31.6778 32.7684 31.6262 32.8249C31.5698 32.8887 31.5133 32.955 31.4568 33.0189L33.574 35.1386C37.0889 31.275 39.0195 26.279 39.0195 21.0252Z" fill="white"/>
<path d="M23.027 32.8692L25.2769 35.1191C26.7113 34.3748 28.0205 33.4194 29.1724 32.2748C32.1911 29.2757 33.8515 25.2819 33.8515 21.0278C33.8515 16.7932 32.201 12.8093 29.2068 9.81513C26.2102 6.81855 22.2287 5.16797 17.9918 5.16797C17.8591 5.16797 17.7265 5.17042 17.5938 5.17288C17.5275 5.17288 17.4637 5.17534 17.3973 5.17779H17.39C17.2917 5.18271 17.1959 5.18762 17.0977 5.19253C17.0191 5.19744 16.9429 5.20236 16.8643 5.20727C16.825 5.20972 16.7907 5.21218 16.7587 5.21464L16.7047 5.21955C16.6359 5.22446 16.5622 5.23183 16.491 5.2392C16.4271 5.24657 16.3682 5.25148 16.3068 5.25885C16.2626 5.26376 16.2233 5.26867 16.1864 5.27113L16.125 5.2785C16.1177 5.2785 16.1103 5.28095 16.1054 5.28095C16.0538 5.28587 16.0022 5.29324 15.9506 5.3006C15.7541 5.32517 15.5626 5.35464 15.3734 5.38412C15.3194 5.39394 15.2678 5.40131 15.2162 5.41113L15.199 5.41359C15.1573 5.42096 15.118 5.42833 15.0787 5.4357L15.0517 5.44061C15.0001 5.45043 14.9485 5.46026 14.8945 5.47008C14.7471 5.4971 14.6071 5.52658 14.4695 5.55851C14.3762 5.57816 14.2829 5.60272 14.1895 5.62482L14.1772 5.62728C14.1527 5.63219 14.1306 5.63711 14.106 5.64447C14.0372 5.66167 13.9758 5.67886 13.912 5.6936C13.8579 5.70834 13.8088 5.72062 13.7572 5.73535C13.713 5.74764 13.6737 5.75746 13.6344 5.76974C13.5976 5.77957 13.5681 5.78939 13.5411 5.79676L13.519 5.80413C13.4797 5.81395 13.4404 5.82623 13.4011 5.83852C13.3348 5.85817 13.2783 5.87536 13.2218 5.89501C13.1751 5.90975 13.1358 5.92203 13.0916 5.93431C12.959 5.97852 12.8263 6.02273 12.6962 6.0694C12.6593 6.08168 12.6274 6.09396 12.593 6.10624L12.5635 6.11607C12.5193 6.13326 12.48 6.14554 12.4407 6.16274C12.3719 6.1873 12.313 6.2094 12.254 6.23397C12.2049 6.25362 12.1632 6.27081 12.1189 6.288C12.0379 6.31993 11.9642 6.34941 11.8905 6.38134L11.6695 6.47468C11.6007 6.50415 11.5344 6.53363 11.468 6.5631C11.4312 6.58029 11.3968 6.59503 11.3624 6.60977L11.3305 6.62451C11.2765 6.64907 11.2224 6.67609 11.1684 6.70065C10.8343 6.8603 10.5052 7.02978 10.1884 7.21154C10.1515 7.23119 10.122 7.24838 10.0877 7.26803C10.0189 7.30733 9.94765 7.34909 9.88133 7.38839L9.6529 7.52839C9.60623 7.55787 9.55711 7.5898 9.50798 7.61927C9.34587 7.72243 9.18131 7.83051 9.00446 7.95332C8.95779 7.98525 8.91358 8.01718 8.86937 8.04665L8.83989 8.0663C8.79814 8.09578 8.76129 8.1228 8.72445 8.14982L8.70971 8.15964C8.68515 8.17929 8.66059 8.19648 8.63357 8.21613L8.62375 8.2235C8.57708 8.25543 8.53287 8.28982 8.48866 8.32421C8.43707 8.36105 8.39041 8.40035 8.34128 8.43719C8.30689 8.46421 8.27742 8.48632 8.2504 8.50842L8.21602 8.53544C8.16689 8.57474 8.11531 8.61404 8.06619 8.6558C8.00969 8.70001 7.95566 8.74668 7.90162 8.79089C7.80583 8.86949 7.71249 8.94809 7.6167 9.0316C7.58722 9.05616 7.56021 9.08072 7.53073 9.10774L9.6529 11.2299C11.974 9.2502 14.919 8.16455 17.9893 8.16455C25.0828 8.16455 30.8549 13.9367 30.8549 21.0302C30.8549 24.4886 29.5016 27.7332 27.0478 30.1673C25.8983 31.3046 24.5179 32.233 23.027 32.8692Z" fill="#C8A35F"/>
</g>
<path d="M54.2937 9.625V21H51.9578V9.625H54.2937ZM57.7937 9.625V11.4609H48.5125V9.625H57.7937ZM59.9297 9.625H64.1719C65.0417 9.625 65.7891 9.75521 66.4141 10.0156C67.0443 10.276 67.5286 10.6615 67.8672 11.1719C68.2057 11.6823 68.375 12.3099 68.375 13.0547C68.375 13.6641 68.2708 14.1875 68.0625 14.625C67.8594 15.0573 67.5703 15.4193 67.1953 15.7109C66.8255 15.9974 66.3906 16.2266 65.8906 16.3984L65.1484 16.7891H61.4609L61.4453 14.9609H64.1875C64.599 14.9609 64.9401 14.888 65.2109 14.7422C65.4818 14.5964 65.6849 14.3932 65.8203 14.1328C65.9609 13.8724 66.0312 13.5703 66.0312 13.2266C66.0312 12.862 65.9635 12.5469 65.8281 12.2812C65.6927 12.0156 65.487 11.8125 65.2109 11.6719C64.9349 11.5312 64.5885 11.4609 64.1719 11.4609H62.2734V21H59.9297V9.625ZM66.2891 21L63.6953 15.9297L66.1719 15.9141L68.7969 20.8906V21H66.2891ZM77.2609 9.625H79.5969V17.1406C79.5969 18.0156 79.4094 18.7526 79.0344 19.3516C78.6646 19.9505 78.1516 20.401 77.4953 20.7031C76.8443 21.0052 76.0943 21.1562 75.2453 21.1562C74.3964 21.1562 73.6411 21.0052 72.9797 20.7031C72.3234 20.401 71.8078 19.9505 71.4328 19.3516C71.063 18.7526 70.8781 18.0156 70.8781 17.1406V9.625H73.2219V17.1406C73.2219 17.651 73.3026 18.0677 73.4641 18.3906C73.6255 18.7135 73.8573 18.9505 74.1594 19.1016C74.4667 19.2526 74.8286 19.3281 75.2453 19.3281C75.6724 19.3281 76.0344 19.2526 76.3312 19.1016C76.6333 18.9505 76.8625 18.7135 77.0187 18.3906C77.1802 18.0677 77.2609 17.651 77.2609 17.1406V9.625ZM88.9203 17.2266H91.2562C91.2094 17.9922 90.9984 18.6719 90.6234 19.2656C90.2536 19.8594 89.7354 20.3229 89.0687 20.6562C88.4073 20.9896 87.6104 21.1562 86.6781 21.1562C85.949 21.1562 85.2953 21.0312 84.7172 20.7812C84.1391 20.526 83.6443 20.1615 83.2328 19.6875C82.8266 19.2135 82.5167 18.6406 82.3031 17.9688C82.0896 17.2969 81.9828 16.5443 81.9828 15.7109V14.9219C81.9828 14.0885 82.0922 13.3359 82.3109 12.6641C82.5349 11.987 82.8526 11.4115 83.2641 10.9375C83.6807 10.4635 84.1781 10.099 84.7562 9.84375C85.3344 9.58854 85.9802 9.46094 86.6937 9.46094C87.6417 9.46094 88.4411 9.63281 89.0922 9.97656C89.7484 10.3203 90.2562 10.7943 90.6156 11.3984C90.9802 12.0026 91.199 12.6901 91.2719 13.4609H88.9281C88.9021 13.0026 88.8109 12.6146 88.6547 12.2969C88.4984 11.974 88.2615 11.7318 87.9437 11.5703C87.6312 11.4036 87.2146 11.3203 86.6937 11.3203C86.3031 11.3203 85.962 11.3932 85.6703 11.5391C85.3786 11.6849 85.1339 11.9062 84.9359 12.2031C84.738 12.5 84.5896 12.875 84.4906 13.3281C84.3969 13.776 84.35 14.3021 84.35 14.9062V15.7109C84.35 16.2995 84.3943 16.8177 84.4828 17.2656C84.5714 17.7083 84.7068 18.0833 84.8891 18.3906C85.0766 18.6927 85.3161 18.9219 85.6078 19.0781C85.9047 19.2292 86.2615 19.3047 86.6781 19.3047C87.1677 19.3047 87.5714 19.2266 87.8891 19.0703C88.2068 18.9141 88.449 18.6823 88.6156 18.375C88.7875 18.0677 88.8891 17.6849 88.9203 17.2266ZM95.9391 9.625V21H93.5953V9.625H95.9391ZM102.752 9.625L98.2437 15.2422L95.6422 18.0391L95.2203 15.8203L96.9781 13.4141L99.8766 9.625H102.752ZM100.087 21L96.7359 15.7422L98.4703 14.2891L102.861 21H100.087ZM109.02 16.0078H106.098L106.083 14.3984H108.536C108.968 14.3984 109.322 14.3438 109.598 14.2344C109.874 14.1198 110.08 13.9557 110.216 13.7422C110.356 13.5234 110.427 13.2578 110.427 12.9453C110.427 12.5911 110.359 12.3047 110.223 12.0859C110.093 11.8672 109.887 11.7083 109.606 11.6094C109.33 11.5104 108.973 11.4609 108.536 11.4609H106.911V21H104.567V9.625H108.536C109.197 9.625 109.789 9.6875 110.309 9.8125C110.835 9.9375 111.281 10.1276 111.645 10.3828C112.01 10.638 112.289 10.9609 112.481 11.3516C112.674 11.737 112.77 12.1953 112.77 12.7266C112.77 13.1953 112.664 13.6276 112.45 14.0234C112.242 14.4193 111.911 14.7422 111.458 14.9922C111.01 15.2422 110.424 15.3802 109.7 15.4062L109.02 16.0078ZM108.919 21H105.458L106.372 19.1719H108.919C109.33 19.1719 109.666 19.1068 109.927 18.9766C110.187 18.8411 110.38 18.6589 110.505 18.4297C110.63 18.2005 110.692 17.9375 110.692 17.6406C110.692 17.3073 110.635 17.0182 110.52 16.7734C110.411 16.5286 110.234 16.3411 109.989 16.2109C109.744 16.0755 109.421 16.0078 109.02 16.0078H106.762L106.778 14.3984H109.591L110.13 15.0312C110.822 15.0208 111.38 15.1432 111.802 15.3984C112.229 15.6484 112.539 15.974 112.731 16.375C112.929 16.776 113.028 17.2057 113.028 17.6641C113.028 18.3932 112.869 19.0078 112.552 19.5078C112.234 20.0026 111.768 20.375 111.153 20.625C110.544 20.875 109.799 21 108.919 21ZM121.867 9.625H124.203V17.1406C124.203 18.0156 124.016 18.7526 123.641 19.3516C123.271 19.9505 122.758 20.401 122.102 20.7031C121.451 21.0052 120.701 21.1562 119.852 21.1562C119.003 21.1562 118.247 21.0052 117.586 20.7031C116.93 20.401 116.414 19.9505 116.039 19.3516C115.669 18.7526 115.484 18.0156 115.484 17.1406V9.625H117.828V17.1406C117.828 17.651 117.909 18.0677 118.07 18.3906C118.232 18.7135 118.464 18.9505 118.766 19.1016C119.073 19.2526 119.435 19.3281 119.852 19.3281C120.279 19.3281 120.641 19.2526 120.938 19.1016C121.24 18.9505 121.469 18.7135 121.625 18.3906C121.786 18.0677 121.867 17.651 121.867 17.1406V9.625ZM132.855 18.0234C132.855 17.8203 132.823 17.638 132.761 17.4766C132.704 17.3099 132.594 17.1589 132.433 17.0234C132.271 16.8828 132.045 16.7448 131.753 16.6094C131.461 16.474 131.084 16.3333 130.62 16.1875C130.105 16.0208 129.615 15.8333 129.152 15.625C128.693 15.4167 128.287 15.1745 127.933 14.8984C127.584 14.6172 127.308 14.2917 127.105 13.9219C126.907 13.5521 126.808 13.1224 126.808 12.6328C126.808 12.1589 126.912 11.7292 127.12 11.3438C127.329 10.9531 127.62 10.6198 127.995 10.3438C128.37 10.0625 128.813 9.84635 129.323 9.69531C129.839 9.54427 130.404 9.46875 131.019 9.46875C131.857 9.46875 132.589 9.61979 133.214 9.92188C133.839 10.224 134.323 10.638 134.667 11.1641C135.016 11.6901 135.191 12.2917 135.191 12.9688H132.862C132.862 12.6354 132.792 12.3438 132.652 12.0938C132.516 11.8385 132.308 11.638 132.027 11.4922C131.751 11.3464 131.402 11.2734 130.98 11.2734C130.573 11.2734 130.235 11.3359 129.964 11.4609C129.693 11.5807 129.49 11.7448 129.355 11.9531C129.219 12.1562 129.152 12.3854 129.152 12.6406C129.152 12.8333 129.198 13.0078 129.292 13.1641C129.391 13.3203 129.537 13.4661 129.73 13.6016C129.922 13.737 130.159 13.8646 130.441 13.9844C130.722 14.1042 131.047 14.2214 131.417 14.3359C132.037 14.5234 132.581 14.7344 133.05 14.9688C133.524 15.2031 133.92 15.4661 134.237 15.7578C134.555 16.0495 134.795 16.3802 134.956 16.75C135.118 17.1198 135.198 17.5391 135.198 18.0078C135.198 18.5026 135.102 18.9453 134.909 19.3359C134.717 19.7266 134.438 20.0573 134.073 20.3281C133.709 20.599 133.274 20.8047 132.769 20.9453C132.264 21.0859 131.698 21.1562 131.073 21.1562C130.511 21.1562 129.956 21.0833 129.409 20.9375C128.862 20.7865 128.365 20.5599 127.917 20.2578C127.474 19.9557 127.12 19.5703 126.855 19.1016C126.589 18.6328 126.456 18.0781 126.456 17.4375H128.808C128.808 17.7917 128.862 18.0911 128.972 18.3359C129.081 18.5807 129.235 18.7786 129.433 18.9297C129.636 19.0807 129.876 19.1901 130.152 19.2578C130.433 19.3255 130.74 19.3594 131.073 19.3594C131.48 19.3594 131.813 19.3021 132.073 19.1875C132.339 19.0729 132.534 18.9141 132.659 18.7109C132.79 18.5078 132.855 18.2786 132.855 18.0234ZM142.678 9.625V21H140.342V9.625H142.678ZM146.178 9.625V11.4609H136.897V9.625H146.178ZM155.947 19.1719V21H149.892V19.1719H155.947ZM150.658 9.625V21H148.314V9.625H150.658ZM155.158 14.2578V16.0391H149.892V14.2578H155.158ZM155.939 9.625V11.4609H149.892V9.625H155.939ZM158.114 9.625H162.356C163.226 9.625 163.973 9.75521 164.598 10.0156C165.229 10.276 165.713 10.6615 166.052 11.1719C166.39 11.6823 166.559 12.3099 166.559 13.0547C166.559 13.6641 166.455 14.1875 166.247 14.625C166.044 15.0573 165.755 15.4193 165.38 15.7109C165.01 15.9974 164.575 16.2266 164.075 16.3984L163.333 16.7891H159.645L159.63 14.9609H162.372C162.783 14.9609 163.124 14.888 163.395 14.7422C163.666 14.5964 163.869 14.3932 164.005 14.1328C164.145 13.8724 164.216 13.5703 164.216 13.2266C164.216 12.862 164.148 12.5469 164.012 12.2812C163.877 12.0156 163.671 11.8125 163.395 11.6719C163.119 11.5312 162.773 11.4609 162.356 11.4609H160.458V21H158.114V9.625ZM164.473 21L161.88 15.9297L164.356 15.9141L166.981 20.8906V21H164.473ZM175.086 18.0234C175.086 17.8203 175.055 17.638 174.992 17.4766C174.935 17.3099 174.826 17.1589 174.664 17.0234C174.503 16.8828 174.276 16.7448 173.984 16.6094C173.693 16.474 173.315 16.3333 172.852 16.1875C172.336 16.0208 171.846 15.8333 171.383 15.625C170.924 15.4167 170.518 15.1745 170.164 14.8984C169.815 14.6172 169.539 14.2917 169.336 13.9219C169.138 13.5521 169.039 13.1224 169.039 12.6328C169.039 12.1589 169.143 11.7292 169.352 11.3438C169.56 10.9531 169.852 10.6198 170.227 10.3438C170.602 10.0625 171.044 9.84635 171.555 9.69531C172.07 9.54427 172.635 9.46875 173.25 9.46875C174.089 9.46875 174.82 9.61979 175.445 9.92188C176.07 10.224 176.555 10.638 176.898 11.1641C177.247 11.6901 177.422 12.2917 177.422 12.9688H175.094C175.094 12.6354 175.023 12.3438 174.883 12.0938C174.747 11.8385 174.539 11.638 174.258 11.4922C173.982 11.3464 173.633 11.2734 173.211 11.2734C172.805 11.2734 172.466 11.3359 172.195 11.4609C171.924 11.5807 171.721 11.7448 171.586 11.9531C171.451 12.1562 171.383 12.3854 171.383 12.6406C171.383 12.8333 171.43 13.0078 171.523 13.1641C171.622 13.3203 171.768 13.4661 171.961 13.6016C172.154 13.737 172.391 13.8646 172.672 13.9844C172.953 14.1042 173.279 14.2214 173.648 14.3359C174.268 14.5234 174.812 14.7344 175.281 14.9688C175.755 15.2031 176.151 15.4661 176.469 15.7578C176.786 16.0495 177.026 16.3802 177.188 16.75C177.349 17.1198 177.43 17.5391 177.43 18.0078C177.43 18.5026 177.333 18.9453 177.141 19.3359C176.948 19.7266 176.669 20.0573 176.305 20.3281C175.94 20.599 175.505 20.8047 175 20.9453C174.495 21.0859 173.93 21.1562 173.305 21.1562C172.742 21.1562 172.188 21.0833 171.641 20.9375C171.094 20.7865 170.596 20.5599 170.148 20.2578C169.706 19.9557 169.352 19.5703 169.086 19.1016C168.82 18.6328 168.688 18.0781 168.688 17.4375H171.039C171.039 17.7917 171.094 18.0911 171.203 18.3359C171.312 18.5807 171.466 18.7786 171.664 18.9297C171.867 19.0807 172.107 19.1901 172.383 19.2578C172.664 19.3255 172.971 19.3594 173.305 19.3594C173.711 19.3594 174.044 19.3021 174.305 19.1875C174.57 19.0729 174.766 18.9141 174.891 18.7109C175.021 18.5078 175.086 18.2786 175.086 18.0234Z" fill="white"/>
<path d="M56.6453 34.1797V35H50.7469V34.1797H56.6453ZM51.0281 23.625V35H50.0672V23.625H51.0281ZM72.7875 28.7031V29.9219C72.7875 30.7188 72.6833 31.4401 72.475 32.0859C72.2719 32.7266 71.975 33.276 71.5844 33.7344C71.199 34.1927 70.7354 34.5443 70.1937 34.7891C69.6521 35.0339 69.0427 35.1562 68.3656 35.1562C67.7042 35.1562 67.1 35.0339 66.5531 34.7891C66.0115 34.5443 65.5453 34.1927 65.1547 33.7344C64.7641 33.276 64.462 32.7266 64.2484 32.0859C64.0349 31.4401 63.9281 30.7188 63.9281 29.9219V28.7031C63.9281 27.9062 64.0323 27.1875 64.2406 26.5469C64.4542 25.901 64.7562 25.349 65.1469 24.8906C65.5375 24.4323 66.0036 24.0807 66.5453 23.8359C67.087 23.5911 67.6885 23.4688 68.35 23.4688C69.0271 23.4688 69.6365 23.5911 70.1781 23.8359C70.7198 24.0807 71.1859 24.4323 71.5766 24.8906C71.9672 25.349 72.2667 25.901 72.475 26.5469C72.6833 27.1875 72.7875 27.9062 72.7875 28.7031ZM71.8344 29.9219V28.6875C71.8344 28.0156 71.7562 27.4115 71.6 26.875C71.449 26.3385 71.2224 25.8802 70.9203 25.5C70.6234 25.1198 70.2589 24.8281 69.8266 24.625C69.3943 24.4219 68.9021 24.3203 68.35 24.3203C67.8135 24.3203 67.3318 24.4219 66.9047 24.625C66.4776 24.8281 66.113 25.1198 65.8109 25.5C65.5141 25.8802 65.2849 26.3385 65.1234 26.875C64.9672 27.4115 64.8891 28.0156 64.8891 28.6875V29.9219C64.8891 30.599 64.9672 31.2083 65.1234 31.75C65.2849 32.2865 65.5167 32.7474 65.8187 33.1328C66.1208 33.513 66.4854 33.8047 66.9125 34.0078C67.3448 34.2109 67.8292 34.3125 68.3656 34.3125C68.9229 34.3125 69.4151 34.2109 69.8422 34.0078C70.2693 33.8047 70.6312 33.513 70.9281 33.1328C71.225 32.7474 71.449 32.2865 71.6 31.75C71.7562 31.2083 71.8344 30.599 71.8344 29.9219ZM89.8203 29.5938V33.6406C89.6901 33.8333 89.4661 34.0469 89.1484 34.2812C88.8307 34.5156 88.4036 34.7214 87.8672 34.8984C87.3307 35.0703 86.6641 35.1562 85.8672 35.1562C85.2005 35.1562 84.5885 35.0365 84.0312 34.7969C83.474 34.5573 82.9896 34.2109 82.5781 33.7578C82.1719 33.2995 81.8568 32.75 81.6328 32.1094C81.4141 31.4688 81.3047 30.75 81.3047 29.9531V28.5781C81.3047 27.7969 81.4062 27.0938 81.6094 26.4688C81.8125 25.8385 82.1068 25.2995 82.4922 24.8516C82.8776 24.4036 83.3411 24.0625 83.8828 23.8281C84.4297 23.5885 85.0417 23.4688 85.7187 23.4688C86.5625 23.4688 87.2734 23.6146 87.8516 23.9062C88.4297 24.1979 88.8802 24.599 89.2031 25.1094C89.5312 25.6146 89.7344 26.1875 89.8125 26.8281H88.8516C88.7786 26.375 88.6276 25.9583 88.3984 25.5781C88.1693 25.1927 87.8359 24.8828 87.3984 24.6484C86.9661 24.4141 86.4062 24.2969 85.7187 24.2969C85.1667 24.2969 84.6745 24.3984 84.2422 24.6016C83.8151 24.8047 83.4557 25.0938 83.1641 25.4688C82.8724 25.8438 82.651 26.2943 82.5 26.8203C82.349 27.3411 82.2734 27.9219 82.2734 28.5625V29.9531C82.2734 30.6198 82.3568 31.2214 82.5234 31.7578C82.6953 32.2943 82.9401 32.7552 83.2578 33.1406C83.5755 33.526 83.9557 33.8229 84.3984 34.0312C84.8411 34.2344 85.3333 34.3359 85.875 34.3359C86.4531 34.3359 86.9453 34.2812 87.3516 34.1719C87.7578 34.0625 88.0833 33.9323 88.3281 33.7812C88.5781 33.625 88.7578 33.4792 88.8672 33.3438V30.4141H85.8125V29.5938H89.8203ZM100.142 23.625V35H99.1812V23.625H100.142ZM116.073 32.2031C116.073 31.8906 116.021 31.612 115.917 31.3672C115.813 31.1224 115.641 30.9036 115.402 30.7109C115.167 30.513 114.849 30.3307 114.448 30.1641C114.053 29.9922 113.558 29.8229 112.964 29.6562C112.396 29.4948 111.883 29.3177 111.425 29.125C110.967 28.9323 110.573 28.7109 110.245 28.4609C109.922 28.2109 109.675 27.9193 109.503 27.5859C109.331 27.2474 109.245 26.8542 109.245 26.4062C109.245 25.9688 109.339 25.5703 109.527 25.2109C109.714 24.8516 109.977 24.5417 110.316 24.2812C110.659 24.0208 111.063 23.8203 111.527 23.6797C111.995 23.5391 112.508 23.4688 113.066 23.4688C113.862 23.4688 114.55 23.6198 115.128 23.9219C115.711 24.224 116.162 24.6328 116.48 25.1484C116.803 25.6589 116.964 26.2318 116.964 26.8672H116.003C116.003 26.3724 115.886 25.9323 115.652 25.5469C115.422 25.1562 115.089 24.8516 114.652 24.6328C114.219 24.4089 113.691 24.2969 113.066 24.2969C112.441 24.2969 111.915 24.3932 111.487 24.5859C111.066 24.7734 110.745 25.026 110.527 25.3438C110.313 25.6562 110.206 26.0052 110.206 26.3906C110.206 26.6615 110.258 26.9115 110.362 27.1406C110.467 27.3646 110.636 27.5755 110.87 27.7734C111.11 27.9661 111.425 28.1484 111.816 28.3203C112.206 28.487 112.688 28.6458 113.261 28.7969C113.865 28.9635 114.402 29.1484 114.87 29.3516C115.339 29.5547 115.735 29.7891 116.058 30.0547C116.381 30.3151 116.626 30.6198 116.792 30.9688C116.959 31.3177 117.042 31.724 117.042 32.1875C117.042 32.651 116.943 33.0677 116.745 33.4375C116.553 33.8021 116.279 34.112 115.925 34.3672C115.576 34.6224 115.162 34.8177 114.683 34.9531C114.209 35.0885 113.691 35.1562 113.128 35.1562C112.623 35.1562 112.12 35.0911 111.62 34.9609C111.12 34.8307 110.662 34.6302 110.245 34.3594C109.834 34.0833 109.503 33.7292 109.253 33.2969C109.008 32.8646 108.886 32.349 108.886 31.75H109.839C109.839 32.2292 109.935 32.6328 110.128 32.9609C110.321 33.2891 110.576 33.5547 110.894 33.7578C111.217 33.9609 111.571 34.1094 111.956 34.2031C112.347 34.2917 112.737 34.3359 113.128 34.3359C113.727 34.3359 114.245 34.2474 114.683 34.0703C115.126 33.8932 115.467 33.6458 115.706 33.3281C115.951 33.0052 116.073 32.6302 116.073 32.2031ZM129.333 23.625V35H128.38V23.625H129.333ZM133.231 23.625V24.4531H124.489V23.625H133.231ZM142.655 23.625V35H141.694V23.625H142.655ZM159.234 31.4531H160.195C160.117 32.2188 159.906 32.8802 159.562 33.4375C159.219 33.9896 158.75 34.4141 158.156 34.7109C157.562 35.0078 156.846 35.1562 156.008 35.1562C155.362 35.1562 154.776 35.0339 154.25 34.7891C153.729 34.5443 153.281 34.1979 152.906 33.75C152.531 33.2969 152.242 32.7552 152.039 32.125C151.836 31.4948 151.734 30.7943 151.734 30.0234V28.6016C151.734 27.8307 151.836 27.1328 152.039 26.5078C152.242 25.8776 152.534 25.3359 152.914 24.8828C153.294 24.4297 153.75 24.0807 154.281 23.8359C154.812 23.5911 155.411 23.4688 156.078 23.4688C156.885 23.4688 157.583 23.6172 158.172 23.9141C158.76 24.2057 159.224 24.6276 159.562 25.1797C159.906 25.7318 160.117 26.3984 160.195 27.1797H159.234C159.161 26.5651 159 26.0443 158.75 25.6172C158.5 25.1901 158.154 24.8646 157.711 24.6406C157.273 24.4115 156.729 24.2969 156.078 24.2969C155.547 24.2969 155.073 24.3984 154.656 24.6016C154.24 24.8047 153.885 25.0964 153.594 25.4766C153.302 25.8516 153.078 26.3021 152.922 26.8281C152.771 27.3542 152.695 27.9401 152.695 28.5859V30.0234C152.695 30.6484 152.768 31.224 152.914 31.75C153.06 32.276 153.273 32.7318 153.555 33.1172C153.841 33.5026 154.19 33.8021 154.602 34.0156C155.013 34.2292 155.482 34.3359 156.008 34.3359C156.68 34.3359 157.24 34.2292 157.688 34.0156C158.141 33.7969 158.492 33.474 158.742 33.0469C158.992 32.6198 159.156 32.0885 159.234 31.4531ZM175.377 32.2031C175.377 31.8906 175.324 31.612 175.22 31.3672C175.116 31.1224 174.944 30.9036 174.705 30.7109C174.47 30.513 174.153 30.3307 173.752 30.1641C173.356 29.9922 172.861 29.8229 172.267 29.6562C171.699 29.4948 171.186 29.3177 170.728 29.125C170.27 28.9323 169.877 28.7109 169.548 28.4609C169.226 28.2109 168.978 27.9193 168.806 27.5859C168.634 27.2474 168.548 26.8542 168.548 26.4062C168.548 25.9688 168.642 25.5703 168.83 25.2109C169.017 24.8516 169.28 24.5417 169.619 24.2812C169.962 24.0208 170.366 23.8203 170.83 23.6797C171.298 23.5391 171.811 23.4688 172.369 23.4688C173.166 23.4688 173.853 23.6198 174.431 23.9219C175.015 24.224 175.465 24.6328 175.783 25.1484C176.106 25.6589 176.267 26.2318 176.267 26.8672H175.306C175.306 26.3724 175.189 25.9323 174.955 25.5469C174.726 25.1562 174.392 24.8516 173.955 24.6328C173.522 24.4089 172.994 24.2969 172.369 24.2969C171.744 24.2969 171.218 24.3932 170.791 24.5859C170.369 24.7734 170.048 25.026 169.83 25.3438C169.616 25.6562 169.509 26.0052 169.509 26.3906C169.509 26.6615 169.561 26.9115 169.666 27.1406C169.77 27.3646 169.939 27.5755 170.173 27.7734C170.413 27.9661 170.728 28.1484 171.119 28.3203C171.509 28.487 171.991 28.6458 172.564 28.7969C173.168 28.9635 173.705 29.1484 174.173 29.3516C174.642 29.5547 175.038 29.7891 175.361 30.0547C175.684 30.3151 175.929 30.6198 176.095 30.9688C176.262 31.3177 176.345 31.724 176.345 32.1875C176.345 32.651 176.246 33.0677 176.048 33.4375C175.856 33.8021 175.582 34.112 175.228 34.3672C174.879 34.6224 174.465 34.8177 173.986 34.9531C173.512 35.0885 172.994 35.1562 172.431 35.1562C171.926 35.1562 171.423 35.0911 170.923 34.9609C170.423 34.8307 169.965 34.6302 169.548 34.3594C169.137 34.0833 168.806 33.7292 168.556 33.2969C168.311 32.8646 168.189 32.349 168.189 31.75H169.142C169.142 32.2292 169.239 32.6328 169.431 32.9609C169.624 33.2891 169.879 33.5547 170.197 33.7578C170.52 33.9609 170.874 34.1094 171.259 34.2031C171.65 34.2917 172.041 34.3359 172.431 34.3359C173.03 34.3359 173.548 34.2474 173.986 34.0703C174.429 33.8932 174.77 33.6458 175.009 33.3281C175.254 33.0052 175.377 32.6302 175.377 32.2031Z" fill="white"/>
<defs>
<clipPath id="clip0_8_172">
<rect width="39.0194" height="46" fill="white"/>
</clipPath>
</defs>
</svg>
