<svg width="205" height="51" viewBox="0 0 205 51" fill="none" xmlns="http://www.w3.org/2000/svg">
<path d="M22.6744 9.152V12.44H18.2104V26H14.1064V12.44H9.64241V9.152H22.6744ZM33.3261 26L29.8221 19.64H28.8381V26H24.7341V9.152H31.6221C32.9501 9.152 34.0781 9.384 35.0061 9.848C35.9501 10.312 36.6541 10.952 37.1181 11.768C37.5821 12.568 37.8141 13.464 37.8141 14.456C37.8141 15.576 37.4941 16.576 36.8541 17.456C36.2301 18.336 35.3021 18.96 34.0701 19.328L37.9581 26H33.3261ZM28.8381 16.736H31.3821C32.1341 16.736 32.6941 16.552 33.0621 16.184C33.4461 15.816 33.6381 15.296 33.6381 14.624C33.6381 13.984 33.4461 13.48 33.0621 13.112C32.6941 12.744 32.1341 12.56 31.3821 12.56H28.8381V16.736ZM44.4223 9.152V19.232C44.4223 20.24 44.6703 21.016 45.1663 21.56C45.6623 22.104 46.3903 22.376 47.3503 22.376C48.3103 22.376 49.0463 22.104 49.5583 21.56C50.0703 21.016 50.3263 20.24 50.3263 19.232V9.152H54.4303V19.208C54.4303 20.712 54.1103 21.984 53.4703 23.024C52.8303 24.064 51.9663 24.848 50.8783 25.376C49.8063 25.904 48.6063 26.168 47.2783 26.168C45.9503 26.168 44.7583 25.912 43.7023 25.4C42.6623 24.872 41.8383 24.088 41.2303 23.048C40.6223 21.992 40.3183 20.712 40.3183 19.208V9.152H44.4223ZM56.6162 17.552C56.6162 15.888 56.9762 14.408 57.6962 13.112C58.4162 11.8 59.4162 10.784 60.6962 10.064C61.9922 9.328 63.4562 8.96 65.0882 8.96C67.0882 8.96 68.8002 9.488 70.2242 10.544C71.6482 11.6 72.6002 13.04 73.0802 14.864H68.5682C68.2322 14.16 67.7522 13.624 67.1282 13.256C66.5202 12.888 65.8242 12.704 65.0402 12.704C63.7762 12.704 62.7522 13.144 61.9682 14.024C61.1842 14.904 60.7922 16.08 60.7922 17.552C60.7922 19.024 61.1842 20.2 61.9682 21.08C62.7522 21.96 63.7762 22.4 65.0402 22.4C65.8242 22.4 66.5202 22.216 67.1282 21.848C67.7522 21.48 68.2322 20.944 68.5682 20.24H73.0802C72.6002 22.064 71.6482 23.504 70.2242 24.56C68.8002 25.6 67.0882 26.12 65.0882 26.12C63.4562 26.12 61.9922 25.76 60.6962 25.04C59.4162 24.304 58.4162 23.288 57.6962 21.992C56.9762 20.696 56.6162 19.216 56.6162 17.552ZM85.3615 26L79.6975 18.56V26H75.5935V9.152H79.6975V16.544L85.3135 9.152H90.1375L83.6095 17.408L90.3775 26H85.3615ZM102.528 17.36C103.504 17.568 104.288 18.056 104.88 18.824C105.472 19.576 105.768 20.44 105.768 21.416C105.768 22.824 105.272 23.944 104.28 24.776C103.304 25.592 101.936 26 100.176 26H92.3278V9.152H99.9118C101.624 9.152 102.96 9.544 103.92 10.328C104.896 11.112 105.384 12.176 105.384 13.52C105.384 14.512 105.12 15.336 104.592 15.992C104.08 16.648 103.392 17.104 102.528 17.36ZM96.4318 15.968H99.1198C99.7918 15.968 100.304 15.824 100.656 15.536C101.024 15.232 101.208 14.792 101.208 14.216C101.208 13.64 101.024 13.2 100.656 12.896C100.304 12.592 99.7918 12.44 99.1198 12.44H96.4318V15.968ZM99.4558 22.688C100.144 22.688 100.672 22.536 101.04 22.232C101.424 21.912 101.616 21.456 101.616 20.864C101.616 20.272 101.416 19.808 101.016 19.472C100.632 19.136 100.096 18.968 99.4078 18.968H96.4318V22.688H99.4558ZM112.18 9.152V19.232C112.18 20.24 112.428 21.016 112.924 21.56C113.42 22.104 114.148 22.376 115.108 22.376C116.068 22.376 116.804 22.104 117.316 21.56C117.828 21.016 118.084 20.24 118.084 19.232V9.152H122.188V19.208C122.188 20.712 121.868 21.984 121.228 23.024C120.588 24.064 119.724 24.848 118.636 25.376C117.564 25.904 116.364 26.168 115.036 26.168C113.708 26.168 112.516 25.912 111.46 25.4C110.42 24.872 109.596 24.088 108.988 23.048C108.38 21.992 108.076 20.712 108.076 19.208V9.152H112.18ZM131.166 26.168C129.934 26.168 128.83 25.968 127.854 25.568C126.878 25.168 126.094 24.576 125.502 23.792C124.926 23.008 124.622 22.064 124.59 20.96H128.958C129.022 21.584 129.238 22.064 129.606 22.4C129.974 22.72 130.454 22.88 131.046 22.88C131.654 22.88 132.134 22.744 132.486 22.472C132.838 22.184 133.014 21.792 133.014 21.296C133.014 20.88 132.87 20.536 132.582 20.264C132.31 19.992 131.966 19.768 131.55 19.592C131.15 19.416 130.574 19.216 129.822 18.992C128.734 18.656 127.846 18.32 127.158 17.984C126.47 17.648 125.878 17.152 125.382 16.496C124.886 15.84 124.638 14.984 124.638 13.928C124.638 12.36 125.206 11.136 126.342 10.256C127.478 9.36 128.958 8.912 130.782 8.912C132.638 8.912 134.134 9.36 135.27 10.256C136.406 11.136 137.014 12.368 137.094 13.952H132.654C132.622 13.408 132.422 12.984 132.054 12.68C131.686 12.36 131.214 12.2 130.638 12.2C130.142 12.2 129.742 12.336 129.438 12.608C129.134 12.864 128.982 13.24 128.982 13.736C128.982 14.28 129.238 14.704 129.75 15.008C130.262 15.312 131.062 15.64 132.15 15.992C133.238 16.36 134.118 16.712 134.79 17.048C135.478 17.384 136.07 17.872 136.566 18.512C137.062 19.152 137.31 19.976 137.31 20.984C137.31 21.944 137.062 22.816 136.566 23.6C136.086 24.384 135.382 25.008 134.454 25.472C133.526 25.936 132.43 26.168 131.166 26.168ZM151.956 9.152V12.44H147.492V26H143.388V12.44H138.924V9.152H151.956ZM158.119 12.44V15.848H163.615V19.016H158.119V22.712H164.335V26H154.015V9.152H164.335V12.44H158.119ZM175.592 26L172.088 19.64H171.104V26H167V9.152H173.888C175.216 9.152 176.344 9.384 177.272 9.848C178.216 10.312 178.92 10.952 179.384 11.768C179.848 12.568 180.08 13.464 180.08 14.456C180.08 15.576 179.76 16.576 179.12 17.456C178.496 18.336 177.568 18.96 176.336 19.328L180.224 26H175.592ZM171.104 16.736H173.648C174.4 16.736 174.96 16.552 175.328 16.184C175.712 15.816 175.904 15.296 175.904 14.624C175.904 13.984 175.712 13.48 175.328 13.112C174.96 12.744 174.4 12.56 173.648 12.56H171.104V16.736ZM188.752 26.168C187.52 26.168 186.416 25.968 185.44 25.568C184.464 25.168 183.68 24.576 183.088 23.792C182.512 23.008 182.208 22.064 182.176 20.96H186.544C186.608 21.584 186.824 22.064 187.192 22.4C187.56 22.72 188.04 22.88 188.632 22.88C189.24 22.88 189.72 22.744 190.072 22.472C190.424 22.184 190.6 21.792 190.6 21.296C190.6 20.88 190.456 20.536 190.168 20.264C189.896 19.992 189.552 19.768 189.136 19.592C188.736 19.416 188.16 19.216 187.408 18.992C186.32 18.656 185.432 18.32 184.744 17.984C184.056 17.648 183.464 17.152 182.968 16.496C182.472 15.84 182.224 14.984 182.224 13.928C182.224 12.36 182.792 11.136 183.928 10.256C185.064 9.36 186.544 8.912 188.368 8.912C190.224 8.912 191.72 9.36 192.856 10.256C193.992 11.136 194.6 12.368 194.68 13.952H190.24C190.208 13.408 190.008 12.984 189.64 12.68C189.272 12.36 188.8 12.2 188.224 12.2C187.728 12.2 187.328 12.336 187.024 12.608C186.72 12.864 186.568 13.24 186.568 13.736C186.568 14.28 186.824 14.704 187.336 15.008C187.848 15.312 188.648 15.64 189.736 15.992C190.824 16.36 191.704 16.712 192.376 17.048C193.064 17.384 193.656 17.872 194.152 18.512C194.648 19.152 194.896 19.976 194.896 20.984C194.896 21.944 194.648 22.816 194.152 23.6C193.672 24.384 192.968 25.008 192.04 25.472C191.112 25.936 190.016 26.168 188.752 26.168Z" fill="white"/>
<path d="M10.0973 35.6C10.0973 33.952 10.4573 32.48 11.1773 31.184C11.8973 29.872 12.8813 28.856 14.1293 28.136C15.3773 27.4 16.7693 27.032 18.3053 27.032C20.1773 27.032 21.7773 27.48 23.1053 28.376C24.4493 29.256 25.4253 30.504 26.0333 32.12H24.0653C23.5853 30.984 22.8493 30.096 21.8573 29.456C20.8813 28.816 19.6973 28.496 18.3053 28.496C17.0733 28.496 15.9613 28.784 14.9693 29.36C13.9933 29.936 13.2253 30.768 12.6653 31.856C12.1053 32.928 11.8253 34.176 11.8253 35.6C11.8253 37.024 12.1053 38.272 12.6653 39.344C13.2253 40.416 13.9933 41.24 14.9693 41.816C15.9613 42.392 17.0733 42.68 18.3053 42.68C19.6973 42.68 20.8813 42.368 21.8573 41.744C22.8493 41.104 23.5853 40.224 24.0653 39.104H26.0333C25.4253 40.704 24.4493 41.944 23.1053 42.824C21.7613 43.704 20.1613 44.144 18.3053 44.144C16.7693 44.144 15.3773 43.784 14.1293 43.064C12.8813 42.328 11.8973 41.312 11.1773 40.016C10.4573 38.72 10.0973 37.248 10.0973 35.6ZM35.1169 44.192C33.8849 44.192 32.7729 43.92 31.7809 43.376C30.8049 42.816 30.0289 42.032 29.4529 41.024C28.8929 40 28.6129 38.808 28.6129 37.448C28.6129 36.088 28.9009 34.904 29.4769 33.896C30.0529 32.872 30.8369 32.088 31.8289 31.544C32.8209 30.984 33.9329 30.704 35.1649 30.704C36.3969 30.704 37.5089 30.984 38.5009 31.544C39.5089 32.088 40.2929 32.872 40.8529 33.896C41.4289 34.904 41.7169 36.088 41.7169 37.448C41.7169 38.792 41.4289 39.976 40.8529 41C40.2769 42.024 39.4849 42.816 38.4769 43.376C37.4689 43.92 36.3489 44.192 35.1169 44.192ZM35.1169 42.728C35.9809 42.728 36.7809 42.536 37.5169 42.152C38.2529 41.752 38.8449 41.16 39.2929 40.376C39.7569 39.576 39.9889 38.6 39.9889 37.448C39.9889 36.296 39.7649 35.328 39.3169 34.544C38.8689 33.744 38.2769 33.152 37.5409 32.768C36.8049 32.368 36.0049 32.168 35.1409 32.168C34.2769 32.168 33.4769 32.368 32.7409 32.768C32.0049 33.152 31.4129 33.744 30.9649 34.544C30.5329 35.328 30.3169 36.296 30.3169 37.448C30.3169 38.6 30.5329 39.576 30.9649 40.376C31.4129 41.16 31.9969 41.752 32.7169 42.152C33.4529 42.536 34.2529 42.728 35.1169 42.728ZM60.3794 30.656C61.9154 30.656 63.1634 31.144 64.1234 32.12C65.0994 33.08 65.5874 34.48 65.5874 36.32V44H63.9314V36.512C63.9314 35.088 63.5874 34 62.8994 33.248C62.2114 32.496 61.2754 32.12 60.0914 32.12C58.8594 32.12 57.8754 32.528 57.1394 33.344C56.4034 34.16 56.0354 35.344 56.0354 36.896V44H54.3794V36.512C54.3794 35.088 54.0354 34 53.3474 33.248C52.6594 32.496 51.7154 32.12 50.5154 32.12C49.2834 32.12 48.2994 32.528 47.5634 33.344C46.8274 34.16 46.4594 35.344 46.4594 36.896V44H44.7794V30.896H46.4594V33.152C46.8754 32.336 47.4674 31.72 48.2354 31.304C49.0034 30.872 49.8594 30.656 50.8034 30.656C51.9394 30.656 52.9314 30.928 53.7794 31.472C54.6434 32.016 55.2674 32.816 55.6514 33.872C56.0034 32.832 56.6034 32.04 57.4514 31.496C58.3154 30.936 59.2914 30.656 60.3794 30.656ZM70.9744 33.776C71.3904 32.896 72.0464 32.168 72.9424 31.592C73.8544 31 74.9344 30.704 76.1824 30.704C77.3664 30.704 78.4304 30.984 79.3744 31.544C80.3344 32.088 81.0784 32.872 81.6064 33.896C82.1504 34.904 82.4224 36.08 82.4224 37.424C82.4224 38.768 82.1504 39.952 81.6064 40.976C81.0784 42 80.3344 42.792 79.3744 43.352C78.4304 43.912 77.3664 44.192 76.1824 44.192C74.9504 44.192 73.8784 43.904 72.9664 43.328C72.0544 42.736 71.3904 42 70.9744 41.12V50.192H69.3184V30.896H70.9744V33.776ZM80.7184 37.424C80.7184 36.336 80.5024 35.4 80.0704 34.616C79.6544 33.816 79.0784 33.208 78.3424 32.792C77.6064 32.376 76.7744 32.168 75.8464 32.168C74.9504 32.168 74.1264 32.384 73.3744 32.816C72.6384 33.248 72.0544 33.864 71.6224 34.664C71.1904 35.464 70.9744 36.392 70.9744 37.448C70.9744 38.504 71.1904 39.432 71.6224 40.232C72.0544 41.032 72.6384 41.648 73.3744 42.08C74.1264 42.512 74.9504 42.728 75.8464 42.728C76.7744 42.728 77.6064 42.52 78.3424 42.104C79.0784 41.672 79.6544 41.056 80.0704 40.256C80.5024 39.44 80.7184 38.496 80.7184 37.424ZM84.7458 37.424C84.7458 36.08 85.0098 34.904 85.5378 33.896C86.0818 32.872 86.8258 32.088 87.7698 31.544C88.7298 30.984 89.8098 30.704 91.0098 30.704C92.2578 30.704 93.3298 30.992 94.2258 31.568C95.1378 32.144 95.7938 32.88 96.1938 33.776V30.896H97.8738V44H96.1938V41.096C95.7778 41.992 95.1138 42.736 94.2018 43.328C93.3058 43.904 92.2338 44.192 90.9858 44.192C89.8018 44.192 88.7298 43.912 87.7698 43.352C86.8258 42.792 86.0818 42 85.5378 40.976C85.0098 39.952 84.7458 38.768 84.7458 37.424ZM96.1938 37.448C96.1938 36.392 95.9778 35.464 95.5458 34.664C95.1138 33.864 94.5218 33.248 93.7698 32.816C93.0338 32.384 92.2178 32.168 91.3218 32.168C90.3938 32.168 89.5618 32.376 88.8258 32.792C88.0898 33.208 87.5058 33.816 87.0738 34.616C86.6578 35.4 86.4498 36.336 86.4498 37.424C86.4498 38.496 86.6578 39.44 87.0738 40.256C87.5058 41.056 88.0898 41.672 88.8258 42.104C89.5618 42.52 90.3938 42.728 91.3218 42.728C92.2178 42.728 93.0338 42.512 93.7698 42.08C94.5218 41.648 95.1138 41.032 95.5458 40.232C95.9778 39.432 96.1938 38.504 96.1938 37.448ZM107.853 30.656C109.421 30.656 110.701 31.144 111.693 32.12C112.685 33.08 113.181 34.48 113.181 36.32V44H111.525V36.512C111.525 35.088 111.165 34 110.445 33.248C109.741 32.496 108.773 32.12 107.541 32.12C106.277 32.12 105.269 32.52 104.517 33.32C103.765 34.12 103.389 35.296 103.389 36.848V44H101.709V30.896H103.389V33.128C103.805 32.328 104.405 31.72 105.189 31.304C105.973 30.872 106.861 30.656 107.853 30.656ZM127.697 30.896L119.921 50.168H118.169L120.713 43.928L115.337 30.896H117.185L121.649 42.08L125.969 30.896H127.697Z" fill="white"/>
</svg>
